<svg width="134" height="13" viewBox="0 0 134 13" fill="none" xmlns="http://www.w3.org/2000/svg">
<path d="M69.0703 6.67969C69.0703 7.79427 68.8828 8.76823 68.5078 9.60156C68.1328 10.4297 67.6016 11.0625 66.9141 11.5C66.2266 11.9375 65.4245 12.1562 64.5078 12.1562C63.612 12.1562 62.8177 11.9375 62.125 11.5C61.4323 11.0573 60.8932 10.4297 60.5078 9.61719C60.1276 8.79948 59.9323 7.85417 59.9219 6.78125V5.96094C59.9219 4.86719 60.112 3.90104 60.4922 3.0625C60.8724 2.22396 61.4089 1.58333 62.1016 1.14062C62.7995 0.692708 63.5964 0.46875 64.4922 0.46875C65.4036 0.46875 66.2057 0.690104 66.8984 1.13281C67.5964 1.57031 68.1328 2.20833 68.5078 3.04688C68.8828 3.88021 69.0703 4.85156 69.0703 5.96094V6.67969ZM67.5781 5.94531C67.5781 4.59635 67.3073 3.5625 66.7656 2.84375C66.224 2.11979 65.4661 1.75781 64.4922 1.75781C63.5443 1.75781 62.7969 2.11979 62.25 2.84375C61.7083 3.5625 61.4297 4.5625 61.4141 5.84375V6.67969C61.4141 7.98698 61.6875 9.01562 62.2344 9.76562C62.7865 10.5104 63.5443 10.8828 64.5078 10.8828C65.4766 10.8828 66.2266 10.5312 66.7578 9.82812C67.2891 9.11979 67.5625 8.10677 67.5781 6.78906V5.94531ZM75.4922 7.39844H72.8203V12H71.3125V0.625H75.0781C76.3594 0.625 77.3438 0.916667 78.0312 1.5C78.724 2.08333 79.0703 2.93229 79.0703 4.04688C79.0703 4.75521 78.8776 5.3724 78.4922 5.89844C78.112 6.42448 77.5807 6.81771 76.8984 7.07812L79.5703 11.9062V12H77.9609L75.4922 7.39844ZM72.8203 6.17188H75.125C75.8698 6.17188 76.4609 5.97917 76.8984 5.59375C77.3411 5.20833 77.5625 4.69271 77.5625 4.04688C77.5625 3.34375 77.3516 2.80469 76.9297 2.42969C76.513 2.05469 75.9089 1.86458 75.1172 1.85938H72.8203V6.17188Z" fill="#B6B8C9"/>
<line x1="88" y1="5.5" x2="134" y2="5.5" stroke="#B6B8C9"/>
<line y1="5.5" x2="46" y2="5.5" stroke="#B6B8C9"/>
</svg>
